<?xml version="1.0" encoding="UTF-8" standalone="no"?>
<!DOCTYPE svg PUBLIC "-//W3C//DTD SVG 1.1//EN" "http://www.w3.org/Graphics/SVG/1.1/DTD/svg11.dtd">
<svg width="100%" height="100%" viewBox="0 0 100 100" version="1.1" xmlns="http://www.w3.org/2000/svg" xmlns:xlink="http://www.w3.org/1999/xlink" xml:space="preserve" xmlns:serif="http://www.serif.com/" style="fill-rule:evenodd;clip-rule:evenodd;stroke-linejoin:round;stroke-miterlimit:2;">
    <g transform="matrix(0.84375,0,0,0.84375,13.1121,7.8125)">
        <path d="M77.388,2L4,2C2.903,2 2,2.903 2,4L2,8C2,9.097 2.903,10 4,10L10,10C13.292,10 16,12.708 16,16L16,84C16,87.292 13.292,90 10,90L4,90C2.903,90 2,90.903 2,92L2,96C2,97.097 2.903,98 4,98L76.876,98C78.706,98.001 80.314,96.745 80.758,94.97L85.378,72.486C85.418,72.327 85.438,72.164 85.438,72C85.438,70.903 84.535,70 83.438,70L79.438,70C78.579,70 77.811,70.553 77.54,71.368L72.122,82.852C70.864,87.079 66.952,89.998 62.542,90L38,90C34.708,90 32,87.292 32,84L32,54L48,54C53.486,54 58,58.514 58,64L58,66L64,66L64,32L58,32L58,36C58,41.486 53.486,46 48,46L32,46L32,16C32,12.708 34.708,10 38,10L62,10C67.486,10 72,14.514 72,20L72,28C72,29.097 72.903,30 74,30L76.266,30C77.257,30 78.106,29.263 78.246,28.282L81.348,6.566C81.375,6.379 81.388,6.189 81.388,6C81.388,3.806 79.583,2 77.388,2Z" style="fill:url(#_Linear1);fill-rule:nonzero;"/>
    </g>
    <defs>
        <linearGradient id="_Linear1" x1="0" y1="0" x2="1" y2="0" gradientUnits="userSpaceOnUse" gradientTransform="matrix(5.12271e-15,83.6601,-83.6601,5.12271e-15,24.5469,7.1939)"><stop offset="0" style="stop-color:rgb(255,148,21);stop-opacity:1"/><stop offset="1" style="stop-color:rgb(255,116,6);stop-opacity:1"/></linearGradient>
    </defs>
</svg>
