<?xml version="1.0" encoding="UTF-8" standalone="no"?>
<!DOCTYPE svg PUBLIC "-//W3C//DTD SVG 1.1//EN" "http://www.w3.org/Graphics/SVG/1.1/DTD/svg11.dtd">
<svg width="100%" height="100%" viewBox="0 0 100 100" version="1.1" xmlns="http://www.w3.org/2000/svg" xmlns:xlink="http://www.w3.org/1999/xlink" xml:space="preserve" xmlns:serif="http://www.serif.com/" style="fill-rule:evenodd;clip-rule:evenodd;stroke-linejoin:round;stroke-miterlimit:2;">
    <path d="M83.015,75.348C83.035,75.319 83.065,75.292 83.085,75.263L83.017,75.279C82.996,75.308 82.971,75.335 82.948,75.365L83.015,75.348Z" style="fill:rgb(128,216,255);fill-rule:nonzero;"/>
    <path d="M83.085,75.258C83.084,75.26 83.059,75.293 83.048,75.307C77.283,82.87 68.92,88.509 58.898,90.7C48.855,92.898 38.883,91.25 30.476,86.762C30.475,86.761 30.474,86.761 30.473,86.76L83.085,75.258ZM76.283,76.749L37.255,85.28C41.234,86.718 45.525,87.502 50,87.502C60.237,87.502 69.516,83.4 76.283,76.749Z" style="fill:rgb(0,229,255);fill-rule:nonzero;"/>
    <path d="M89.27,63.789C87.811,67.936 85.675,71.797 83.02,75.273C83.019,75.274 83.018,75.276 83.017,75.277L30.494,86.758L30.473,86.763C26.622,84.707 23.099,82.055 20.05,78.902L20.038,78.89L24.868,77.834L84.464,64.806L89.283,63.752L89.27,63.789ZM84.448,64.842L24.883,77.847C28.451,81.068 32.641,83.612 37.25,85.279L76.287,76.745C79.724,73.366 82.512,69.331 84.448,64.842Z" style="fill:rgb(128,216,255);fill-rule:nonzero;"/>
    <path d="M89.284,63.752L89.271,63.789L84.448,64.842L24.883,77.847L20.05,78.902L20.038,78.889C17.532,76.293 15.33,73.376 13.55,70.152L17.795,69.224C19.717,72.437 22.106,75.338 24.868,77.834L84.464,64.806C85.911,61.44 86.881,57.821 87.286,54.033L91.535,53.104C91.261,56.78 90.476,60.349 89.284,63.752ZM27.196,67.169L43.75,63.55L43.75,65.275C43.75,70.646 39.775,75 34.406,75L34.215,75C30.833,75 27.677,72.7 27.16,69.36C27.067,68.746 27.06,68.131 27.142,67.517C27.157,67.4 27.175,67.284 27.196,67.169ZM52.078,61.729L68.75,58.085L68.75,58.983C68.75,64.352 64.396,68.708 59.027,68.708L58.835,68.708C55.454,68.708 52.633,66.744 52.117,63.404C52.032,62.846 52.019,62.288 52.078,61.729Z" style="fill:rgb(130,177,255);fill-rule:nonzero;"/>
    <path d="M90.702,41.1L90.703,41.104C91.585,45.149 91.827,49.178 91.535,53.104L87.286,54.033C87.427,52.708 87.5,51.363 87.5,50C87.5,47.251 87.204,44.572 86.643,41.991L68.75,45.903L68.75,58.085L52.078,61.729C52.084,61.673 52.091,61.617 52.098,61.56C52.44,58.927 54.315,56.788 56.796,56.048L57.346,55.915L63.156,54.167C63.996,53.952 64.583,53.198 64.583,52.331L64.583,46.814L43.75,51.368L43.75,63.55L27.196,67.167C27.652,64.695 29.469,62.711 31.84,62.004L32.39,61.871L38.16,60.165C38.996,59.954 39.583,59.198 39.583,58.333L39.583,52.279L13.358,58.011C14.231,62.026 15.748,65.801 17.794,69.222L13.55,70.15C11.646,66.704 10.185,62.94 9.3,58.896L90.702,41.1Z" style="fill:rgb(140,158,255);fill-rule:nonzero;"/>
    <path d="M9.302,58.895C8.506,55.257 8.263,51.635 8.425,48.081L12.604,47.181C12.535,48.112 12.5,49.052 12.5,50C12.5,52.749 12.796,55.428 13.357,58.009L39.583,52.275L39.583,41.373L45.022,40.202C44.243,40.664 43.75,41.519 43.75,42.481L43.75,51.364L64.583,46.81L64.583,38.15C64.583,37.233 63.965,36.488 63.144,36.3L68.75,35.093L68.75,45.899L86.642,41.988C85.875,38.461 84.611,35.12 82.928,32.041L87.102,31.142L87.106,31.142C87.114,31.158 87.123,31.174 87.131,31.19C88.689,34.273 89.931,37.57 90.702,41.1L90.703,41.104L9.302,58.898L9.302,58.895Z" style="fill:rgb(179,136,255);fill-rule:nonzero;"/>
    <path d="M87.131,31.19C87.12,31.174 87.11,31.159 87.102,31.142L82.928,32.041C80.475,27.553 77.132,23.621 73.135,20.484L16.653,32.83L73.133,20.482L78.208,19.373C78.214,19.378 78.22,19.383 78.225,19.388C81.864,22.737 84.916,26.755 87.204,31.294C87.182,31.259 87.155,31.225 87.131,31.19ZM11.617,33.931L16.653,32.83C14.406,37.186 12.987,42.038 12.605,47.179L8.452,48.073C8.679,43.148 9.731,38.369 11.588,33.938L11.617,33.931ZM68.75,35.093L63.144,36.3L45.026,40.2L39.583,41.371L39.583,30.556C39.583,29.298 40.485,28.223 41.723,28.004L66.525,22.946C67.688,22.742 68.75,23.633 68.75,24.813L68.75,35.093Z" style="fill:rgb(234,128,252);fill-rule:nonzero;"/>
    <path d="M78.225,19.388C78.219,19.384 78.214,19.38 78.208,19.375L73.135,20.484L16.653,32.83L73.133,20.482C68.697,17 63.456,14.497 57.736,13.297L65.9,11.512C70.465,13.404 74.667,16.087 78.296,19.438C78.274,19.418 78.248,19.404 78.225,19.388ZM19.494,21.656L27.671,19.869C23.08,23.277 19.294,27.711 16.653,32.83L11.617,33.931C13.51,29.417 16.162,25.25 19.494,21.656Z" style="fill:rgb(255,128,171);fill-rule:nonzero;"/>
    <path d="M65.9,11.512L57.736,13.297C55.24,12.773 52.652,12.498 50,12.498C41.635,12.498 33.91,15.238 27.671,19.869L19.494,21.656C25.075,15.635 32.473,11.183 41.104,9.298C49.735,7.413 58.315,8.371 65.9,11.512Z" style="fill:rgb(255,138,128);fill-rule:nonzero;"/>
    <path d="M12.604,47.181L12.605,47.179L39.583,41.371L39.583,41.373L12.604,47.181ZM17.795,69.224L17.794,69.222L27.196,67.167L27.196,67.169L17.795,69.224ZM86.642,41.988L86.643,41.991L68.75,45.903L68.75,45.899L86.642,41.988ZM84.464,64.806L84.448,64.842L24.883,77.847L24.868,77.834L84.464,64.806ZM13.357,58.009L39.583,52.275L39.583,52.279L13.358,58.011L13.357,58.009ZM73.135,20.484L16.653,32.83L73.133,20.482L73.135,20.484ZM45.022,40.202L45.026,40.2C45.283,40.047 45.573,39.939 45.885,39.883L62.404,36.283C62.66,36.238 62.91,36.247 63.143,36.3L45.022,40.202ZM64.583,46.814L43.75,51.368L43.75,51.364L64.583,46.81L64.583,46.814ZM76.287,76.745L76.283,76.749L37.255,85.28L37.25,85.279L76.287,76.745Z" style="fill:white;fill-rule:nonzero;"/>
</svg>
