<?xml version="1.0" encoding="iso-8859-1"?><!-- Generator: Adobe Illustrator 23.0.0, SVG Export Plug-In . SVG Version: 6.00 Build 0)  --><svg fill="#FFFFFF" xmlns="http://www.w3.org/2000/svg" xmlns:xlink="http://www.w3.org/1999/xlink" viewBox="0 0 30 30" width="100px" height="100px"><g><g><path d="M1.448,15.732c-0.064,0-0.116,0.051-0.125,0.121l-0.295,2.694l0.295,2.634c0.008,0.07,0.061,0.122,0.125,0.122c0.063,0,0.114-0.05,0.125-0.121l0.336-2.635l-0.336-2.694C1.563,15.782,1.512,15.732,1.448,15.732z"/><path d="M0.339,16.763c-0.063,0-0.112,0.049-0.12,0.117L0,18.547l0.219,1.638c0.008,0.069,0.058,0.117,0.12,0.117c0.061,0,0.11-0.048,0.12-0.116l0.26-1.639l-0.26-1.667C0.45,16.812,0.4,16.763,0.339,16.763z"/><path d="M2.628,15.203c-0.08,0-0.142,0.062-0.15,0.147l-0.28,3.197l0.28,3.08c0.007,0.085,0.071,0.147,0.15,0.147c0.078,0,0.141-0.062,0.15-0.147l0.318-3.081l-0.318-3.197C2.768,15.265,2.706,15.203,2.628,15.203z"/><path d="M3.816,15.091c-0.093,0-0.169,0.074-0.176,0.173l-0.264,3.284l0.264,3.177c0.008,0.098,0.083,0.173,0.176,0.173c0.092,0,0.168-0.074,0.175-0.173l0.301-3.177l-0.301-3.285C3.983,15.165,3.908,15.091,3.816,15.091z"/><path d="M5.215,15.5c-0.007-0.113-0.095-0.198-0.202-0.198c-0.108,0-0.195,0.085-0.202,0.199l-0.249,3.047l0.249,3.203c0.007,0.112,0.094,0.199,0.202,0.199c0.107,0,0.194-0.085,0.202-0.199l0.283-3.203L5.215,15.5z"/><path d="M6.221,13.367c-0.121,0-0.221,0.098-0.227,0.225L5.76,18.549l0.234,3.203c0.007,0.125,0.106,0.224,0.227,0.224c0.12,0,0.22-0.099,0.227-0.225v0.001l0.265-3.203l-0.265-4.958C6.441,13.466,6.341,13.367,6.221,13.367z"/><path d="M7.419,12.226c-0.136,0-0.247,0.11-0.253,0.25l-0.219,6.091l0.219,3.184C7.172,21.89,7.283,22,7.419,22c0.135,0,0.247-0.11,0.252-0.25v0.002l0.248-3.184l-0.247-6.092C7.666,12.335,7.554,12.226,7.419,12.226z"/><path d="M8.665,11.675c-0.151,0-0.273,0.122-0.278,0.277l-0.204,6.599l0.204,3.151c0.006,0.154,0.127,0.275,0.278,0.275c0.15,0,0.272-0.121,0.278-0.276v0.002l0.231-3.151l-0.231-6.6C8.937,11.797,8.815,11.675,8.665,11.675z"/><path d="M10.206,11.73c-0.006-0.17-0.139-0.302-0.304-0.302c-0.166,0-0.299,0.133-0.304,0.302l-0.189,6.821l0.189,3.131c0.005,0.168,0.138,0.3,0.304,0.3c0.165,0,0.298-0.132,0.304-0.302l0.213-3.129L10.206,11.73z"/><path d="M11.148,11.577c-0.181,0-0.325,0.144-0.33,0.328l-0.174,6.647l0.174,3.101c0.004,0.182,0.149,0.326,0.329,0.326c0.18,0,0.324-0.144,0.329-0.328v0.002l0.196-3.102l-0.196-6.648C11.472,11.72,11.328,11.577,11.148,11.577z"/><path d="M12.403,11.793c-0.195,0-0.352,0.156-0.355,0.353l-0.158,6.404l0.158,3.082c0.004,0.196,0.159,0.352,0.355,0.352c0.195,0,0.351-0.155,0.355-0.353v0.003l0.178-3.082l-0.178-6.405C12.755,11.949,12.598,11.793,12.403,11.793z"/><path d="M13.88,10.617c-0.061-0.041-0.133-0.065-0.21-0.065c-0.075,0-0.145,0.023-0.205,0.062c-0.104,0.067-0.173,0.185-0.175,0.318l-0.001,0.072l-0.143,7.547c0,0.005,0.143,3.064,0.143,3.064c0,0.005,0.001,0.008,0.001,0.013c0.005,0.085,0.037,0.164,0.089,0.226c0.07,0.084,0.175,0.138,0.292,0.138c0.103,0,0.198-0.042,0.266-0.112c0.068-0.068,0.113-0.163,0.114-0.268l0.016-0.303l0.144-2.757l-0.16-7.622C14.048,10.801,13.98,10.685,13.88,10.617z"/><polygon points="14.049,21.615 14.049,21.614 14.049,21.615 14.049,21.613 14.05,21.612 14.049,21.613 14.049,21.614 "/><path d="M15.136,9.894c-0.061-0.037-0.131-0.058-0.206-0.058c-0.097,0-0.187,0.035-0.256,0.093c-0.09,0.074-0.148,0.187-0.15,0.312l-0.001,0.042l-0.166,8.271l0.084,1.529l0.083,1.488c0.003,0.22,0.185,0.402,0.407,0.402c0.22,0,0.403-0.182,0.406-0.405v0.004l0,0l0.181-3.017l0,0l-0.181-8.313C15.333,10.094,15.253,9.965,15.136,9.894z"/><path d="M26.31,14.619c-0.505,0-0.988,0.102-1.427,0.287c-0.293-3.325-3.083-5.934-6.484-5.934c-0.833,0-1.643,0.164-2.361,0.441c-0.278,0.108-0.352,0.218-0.355,0.434v11.711c0.003,0.226,0.178,0.401,0.398,0.424c0.009,0.001,10.228,0,10.228,0c2.038,0,3.69-1.634,3.69-3.672C30,16.271,28.348,14.619,26.31,14.619z"/></g></g></svg>