<?xml version="1.0" encoding="UTF-8" standalone="no"?>
<!DOCTYPE svg PUBLIC "-//W3C//DTD SVG 1.1//EN" "http://www.w3.org/Graphics/SVG/1.1/DTD/svg11.dtd">
<svg width="100%" height="100%" viewBox="0 0 100 100" version="1.1" xmlns="http://www.w3.org/2000/svg" xmlns:xlink="http://www.w3.org/1999/xlink" xml:space="preserve" xmlns:serif="http://www.serif.com/" style="fill-rule:evenodd;clip-rule:evenodd;stroke-linejoin:round;stroke-miterlimit:2;">
    <path d="M4.827,52.44C5.04,52.44 5.21,52.607 5.243,52.843L6.363,61.823L5.243,70.607C5.207,70.843 5.037,71.01 4.827,71.01C4.613,71.01 4.437,70.837 4.41,70.603L3.427,61.823L4.41,52.843C4.44,52.61 4.613,52.44 4.827,52.44ZM1.13,55.877C1.333,55.877 1.5,56.04 1.53,56.267L2.397,61.823L1.53,67.287C1.497,67.513 1.333,67.673 1.13,67.673C0.923,67.673 0.757,67.513 0.73,67.283L0,61.823L0.73,56.267C0.757,56.04 0.92,55.877 1.13,55.877ZM8.76,50.677C9.02,50.677 9.227,50.883 9.26,51.163L10.32,61.82L9.26,72.09C9.23,72.373 9.02,72.58 8.76,72.58C8.497,72.58 8.283,72.373 8.26,72.09L7.327,61.823L8.26,51.167C8.287,50.883 8.493,50.677 8.76,50.677ZM12.72,50.303C13.027,50.303 13.277,50.55 13.303,50.877L14.307,61.827L13.303,72.417C13.28,72.747 13.027,72.993 12.72,72.993C12.41,72.993 12.16,72.743 12.133,72.417L11.253,61.827L12.133,50.88C12.157,50.55 12.41,50.303 12.72,50.303ZM17.383,51.667L18.327,61.827L17.383,72.503C17.357,72.883 17.067,73.167 16.71,73.167C16.35,73.167 16.06,72.877 16.037,72.503L15.207,61.827L16.037,51.67C16.06,51.29 16.35,51.007 16.71,51.007C17.067,51.007 17.36,51.29 17.383,51.667ZM21.493,72.503C21.493,72.504 21.493,72.506 21.493,72.507C21.468,72.925 21.136,73.253 20.737,73.253C20.333,73.253 20.003,72.923 19.98,72.507L19.2,61.83L19.98,45.307C20,44.883 20.333,44.557 20.737,44.557C21.137,44.557 21.47,44.887 21.493,45.303L22.377,61.83L21.493,72.503ZM25.57,72.5C25.57,72.501 25.57,72.506 25.57,72.507C25.55,72.97 25.178,73.333 24.73,73.333C24.277,73.333 23.907,72.967 23.887,72.503L23.157,61.89L23.887,41.587C23.907,41.12 24.277,40.753 24.73,40.753C25.18,40.753 25.553,41.117 25.573,41.587L26.397,61.893L25.57,72.5ZM29.81,72.337C29.81,72.338 29.81,72.342 29.81,72.343C29.787,72.857 29.381,73.257 28.883,73.257C28.38,73.257 27.977,72.853 27.957,72.34L27.277,61.837L27.957,39.84C27.973,39.323 28.38,38.917 28.883,38.917C29.383,38.917 29.79,39.323 29.81,39.84L30.58,61.84L29.81,72.337ZM34.02,39.1L34.73,61.837L34.02,72.267C34,72.833 33.557,73.273 33.007,73.273C32.453,73.273 32.01,72.833 31.993,72.273L31.363,61.837L31.993,39.1C32.01,38.537 32.453,38.093 33.007,38.093C33.557,38.093 34,38.533 34.02,39.1ZM38.254,72.17C38.253,72.171 38.253,72.176 38.253,72.177C38.233,72.787 37.754,73.263 37.157,73.263C36.557,73.263 36.073,72.783 36.06,72.177L35.48,61.84L36.06,39.683C36.077,39.07 36.557,38.59 37.16,38.59C37.76,38.59 38.24,39.067 38.253,39.677L38.907,61.837L38.254,72.17ZM42.527,72.103C42.527,72.105 42.527,72.112 42.527,72.113C42.508,72.769 41.99,73.28 41.343,73.28C40.69,73.28 40.173,72.76 40.16,72.107L39.633,61.833L40.16,40.487C40.17,39.83 40.693,39.31 41.343,39.31C41.993,39.31 42.517,39.83 42.527,40.49L43.12,61.84L42.527,72.103ZM46.267,35.39C46.6,35.617 46.827,36.003 46.837,36.433L47.37,61.84L46.89,71.03L46.837,72.04C46.833,72.39 46.683,72.707 46.457,72.933C46.23,73.167 45.913,73.307 45.57,73.307C45.18,73.307 44.83,73.127 44.597,72.847C44.423,72.64 44.317,72.377 44.3,72.093C44.3,72.077 44.297,72.067 44.297,72.05C44.297,72.05 43.82,61.853 43.82,61.837L44.297,36.68L44.3,36.44C44.307,35.997 44.537,35.603 44.883,35.38C45.083,35.25 45.317,35.173 45.567,35.173C45.823,35.173 46.063,35.253 46.267,35.39ZM51.124,71.893C51.124,71.896 51.123,71.904 51.123,71.907C51.106,72.644 50.499,73.243 49.77,73.243C49.03,73.243 48.423,72.637 48.413,71.903L48.137,66.943L47.857,61.847L48.41,34.277L48.413,34.137C48.42,33.72 48.613,33.343 48.913,33.097C49.143,32.903 49.443,32.787 49.767,32.787C50.017,32.787 50.25,32.857 50.453,32.98C50.843,33.217 51.11,33.647 51.123,34.14L51.727,61.85L51.124,71.893ZM87.7,48.73C94.493,48.73 100,54.237 99.997,61.033C99.997,67.827 94.49,73.273 87.697,73.273C87.697,73.273 53.633,73.277 53.603,73.273C52.87,73.197 52.287,72.613 52.277,71.86L52.277,32.823C52.287,32.103 52.533,31.737 53.46,31.377C55.853,30.453 58.553,29.907 61.33,29.907C72.667,29.907 81.967,38.603 82.943,49.687C84.407,49.07 86.017,48.73 87.7,48.73Z" style="fill:url(#_Linear1);"/>
    <defs>
        <linearGradient id="_Linear1" x1="0" y1="0" x2="1" y2="0" gradientUnits="userSpaceOnUse" gradientTransform="matrix(0.352941,-22.1176,22.1176,0.352941,45.3529,72.1176)"><stop offset="0" style="stop-color:rgb(228,73,0);stop-opacity:1"/><stop offset="1" style="stop-color:rgb(236,140,0);stop-opacity:1"/></linearGradient>
    </defs>
</svg>
