<?xml version="1.0" encoding="UTF-8" standalone="no"?>
<!DOCTYPE svg PUBLIC "-//W3C//DTD SVG 1.1//EN" "http://www.w3.org/Graphics/SVG/1.1/DTD/svg11.dtd">
<svg width="100%" height="100%" viewBox="0 0 100 100" version="1.1" xmlns="http://www.w3.org/2000/svg" xmlns:xlink="http://www.w3.org/1999/xlink" xml:space="preserve" xmlns:serif="http://www.serif.com/" style="fill-rule:evenodd;clip-rule:evenodd;stroke-linejoin:round;stroke-miterlimit:2;">
    <g id="Filled_2_">
        <path d="M50,10C28,10 10,28 10,50C10,72 28,90 50,90C72,90 90,72 90,50C90,28 72,10 50,10ZM65.77,70C65.037,70 64.67,69.633 63.937,69.267C58.437,65.963 51.47,64.133 44.137,64.133C40.103,64.133 35.703,64.867 32.037,65.6C31.303,65.6 30.57,65.967 30.203,65.967C28.737,65.967 27.637,64.867 27.637,63.4C27.637,61.933 28.37,60.833 29.837,60.833C34.603,59.733 39.373,59 44.507,59C52.94,59 60.64,61.2 67.24,64.867C67.973,65.6 68.707,65.967 68.707,67.433C67.967,69.267 66.867,70 65.77,70ZM69.8,59.737C69.067,59.737 68.333,59.37 67.6,59.003C61.367,54.97 52.563,52.77 43.033,52.77C38.267,52.77 33.863,53.503 30.567,54.237C29.833,54.603 29.467,54.603 28.733,54.603C26.9,54.603 25.797,53.137 25.797,51.667C25.797,49.833 26.53,49.1 28.363,48.363C32.763,47.263 37.167,46.163 43.4,46.163C53.667,46.163 63.2,48.73 71.27,53.497C72.37,54.23 73.103,55.33 73.103,56.433C72.733,58.267 71.637,59.737 69.8,59.737ZM74.567,48C73.833,48 73.467,47.633 72.367,47.267C65.033,43.233 54.4,40.667 44.133,40.667C39,40.667 33.5,41.4 28.73,42.5C27.997,42.5 27.63,42.867 26.53,42.867C24.33,43.237 22.863,41.4 22.863,39.203C22.863,37.007 23.963,35.9 25.43,35.537C31.3,34.067 37.533,33.333 44.133,33.333C55.5,33.333 67.233,35.9 76.403,40.667C77.503,41.4 78.603,42.5 78.603,44.333C78.237,46.533 76.767,48 74.567,48Z" style="fill:url(#_Linear1);fill-rule:nonzero;"/>
    </g>
    <defs>
        <linearGradient id="_Linear1" x1="0" y1="0" x2="1" y2="0" gradientUnits="userSpaceOnUse" gradientTransform="matrix(-28.1176,46.1176,-46.1176,-28.1176,70.4118,20.7059)"><stop offset="0" style="stop-color:rgb(100,255,86);stop-opacity:1"/><stop offset="1" style="stop-color:rgb(15,221,0);stop-opacity:1"/></linearGradient>
    </defs>
</svg>
