<?xml version="1.0" encoding="UTF-8" standalone="no"?>
<!DOCTYPE svg PUBLIC "-//W3C//DTD SVG 1.1//EN" "http://www.w3.org/Graphics/SVG/1.1/DTD/svg11.dtd">
<svg width="100%" height="100%" viewBox="0 0 100 100" version="1.1" xmlns="http://www.w3.org/2000/svg" xmlns:xlink="http://www.w3.org/1999/xlink" xml:space="preserve" xmlns:serif="http://www.serif.com/" style="fill-rule:evenodd;clip-rule:evenodd;stroke-linejoin:round;stroke-miterlimit:2;">
    <g>
        <path d="M91.295,15.117L91.295,85.045C91.295,88.914 88.154,92.055 84.286,92.055L15.468,92.055C11.599,92.055 8.458,88.914 8.458,85.045L8.458,15.117C8.458,11.248 11.599,8.107 15.468,8.107L84.286,8.107C88.154,8.107 91.295,11.248 91.295,15.117ZM86.783,15.117C86.783,13.738 85.664,12.619 84.286,12.619L15.468,12.619C14.089,12.619 12.97,13.738 12.97,15.117L12.97,85.045C12.97,86.424 14.089,87.543 15.468,87.543L84.286,87.543C85.664,87.543 86.783,86.424 86.783,85.045L86.783,15.117ZM49.428,52.437L49.428,22.23C49.428,20.984 50.438,19.974 51.684,19.974L60.233,19.974C60.993,19.974 61.665,20.35 62.073,20.925C62.299,21.125 62.436,21.377 62.438,21.684C62.438,21.684 62.438,21.702 62.438,21.711C62.438,21.711 64.316,33.253 75.469,33.585C76.721,33.623 76.09,37.228 76.106,37.835C76.106,37.835 76.327,45.926 76.28,47.543C76.256,48.366 74.328,47.917 73.725,47.911C68.643,47.857 64.992,46.679 62.489,45.366L62.489,61.997C62.489,62.133 62.477,62.267 62.454,62.396C61.844,72.531 53.421,80.574 43.134,80.574C32.452,80.574 23.779,71.901 23.779,61.219C23.779,51.132 31.512,42.838 41.367,41.944C41.949,41.891 42.539,41.864 43.134,41.864C44.066,41.864 44.982,41.93 45.879,42.058L45.879,55.555C45.049,55.152 44.118,54.925 43.134,54.925C42.521,54.925 41.928,55.013 41.367,55.177C38.753,55.942 36.841,58.359 36.841,61.219C36.841,64.692 39.661,67.513 43.134,67.513C46.608,67.513 49.428,64.692 49.428,61.219L49.428,52.437C52.122,54.372 53.892,57.516 53.939,61.073C53.94,61.122 53.94,61.17 53.94,61.219C53.94,62.272 53.789,63.29 53.507,64.253C52.195,68.741 48.045,72.024 43.134,72.024C37.171,72.024 32.329,67.183 32.329,61.219C32.329,55.857 36.243,51.402 41.367,50.558L41.367,46.48C34.007,47.355 28.291,53.625 28.291,61.219C28.291,69.411 34.942,76.062 43.134,76.062C50.287,76.062 56.265,70.992 57.666,64.253C57.87,63.273 57.977,62.258 57.977,61.219C57.977,60.72 57.953,60.227 57.904,59.741L57.977,59.741L57.977,41.8C57.943,41.754 57.927,41.73 57.927,41.73L57.927,35.221C57.942,35.239 57.959,35.258 57.977,35.278C58.47,35.816 60.215,37.295 62.489,38.819C65.275,40.686 68.855,42.619 71.898,42.967C71.875,41.347 71.989,39.183 71.949,37.621C70.378,37.446 66.07,35.695 62.489,32.82C60.626,31.324 58.959,29.524 57.977,27.483C57.96,27.447 57.943,27.412 57.927,27.376L57.927,24.486C57.461,24.486 53.94,24.486 53.94,24.486L53.939,60.735C53.86,56.876 51.085,53.215 49.428,52.437ZM57.927,41.73C57.927,42.145 57.71,41.376 57.927,41.73Z" style="fill:url(#_Linear1);"/>
    </g>
    <defs>
        <linearGradient id="_Linear1" x1="0" y1="0" x2="1" y2="0" gradientUnits="userSpaceOnUse" gradientTransform="matrix(76.3824,69.9402,-69.9402,76.3824,11.6598,13.6533)"><stop offset="0" style="stop-color:rgb(231,0,55);stop-opacity:1"/><stop offset="1" style="stop-color:rgb(46,255,223);stop-opacity:1"/></linearGradient>
    </defs>
</svg>
